<?xml version="1.0" encoding="utf-8"?>
<!-- Generator: Adobe Illustrator 26.2.1, SVG Export Plug-In . SVG Version: 6.00 Build 0)  -->
<svg version="1.1" id="레이어_1" xmlns="http://www.w3.org/2000/svg" xmlns:xlink="http://www.w3.org/1999/xlink" x="0px"
	 y="0px" viewBox="0 0 42 42" style="enable-background:new 0 0 42 42;" xml:space="preserve">
<style type="text/css">
	.st0{fill:none;}
	.st1{fill:#FFFFFF;}
</style>
<rect class="st0" width="42" height="42"/>
<path class="st1" d="M9.3,5.7c1.1-0.4,2.3-0.5,3.4-0.2c1.1,0.3,2.2,0.8,3,1.6c0.8,0.8,1.4,1.9,1.6,3s0.2,2.3-0.2,3.4l19,19l-3.7,3.7
	l-19-19c-1.1,0.4-2.3,0.5-3.4,0.2c-1.1-0.3-2.2-0.8-3-1.6c-0.8-0.8-1.4-1.9-1.6-3s-0.2-2.3,0.2-3.4l3.9,3.9c0.2,0.3,0.5,0.5,0.9,0.6
	s0.7,0.2,1,0.2c0.3,0,0.7-0.1,1-0.2c0.3-0.1,0.6-0.3,0.9-0.6c0.2-0.2,0.4-0.5,0.6-0.9c0.1-0.3,0.2-0.7,0.2-1c0-0.3-0.1-0.7-0.2-1
	c-0.1-0.3-0.3-0.6-0.6-0.9L9.3,5.7L9.3,5.7z M27.5,9L33,5.9l2.5,2.5L32.4,14l-3.1,0.6l-3.7,3.7l-2.5-2.5l3.7-3.7L27.5,9L27.5,9z
	 M15.1,22.6l3.7,3.7L10.1,35c-0.5,0.5-1.1,0.7-1.8,0.8c-0.7,0-1.3-0.2-1.8-0.7C6,34.6,5.7,34,5.7,33.3c0-0.7,0.2-1.3,0.6-1.9
	l0.2-0.2L15.1,22.6L15.1,22.6z"/>
</svg>
