<svg width="20" height="20" viewBox="0 0 20 20" fill="none" xmlns="http://www.w3.org/2000/svg">
<path d="M5.83464 3.33268V16.666H14.168V3.33268H5.83464ZM5.0013 1.66602H15.0013C15.2223 1.66602 15.4343 1.75381 15.5906 1.91009C15.7468 2.06637 15.8346 2.27834 15.8346 2.49935V17.4993C15.8346 17.7204 15.7468 17.9323 15.5906 18.0886C15.4343 18.2449 15.2223 18.3327 15.0013 18.3327H5.0013C4.78029 18.3327 4.56833 18.2449 4.41205 18.0886C4.25577 17.9323 4.16797 17.7204 4.16797 17.4993V2.49935C4.16797 2.27834 4.25577 2.06637 4.41205 1.91009C4.56833 1.75381 4.78029 1.66602 5.0013 1.66602ZM10.0013 14.166C10.2223 14.166 10.4343 14.2538 10.5906 14.4101C10.7468 14.5664 10.8346 14.7783 10.8346 14.9993C10.8346 15.2204 10.7468 15.4323 10.5906 15.5886C10.4343 15.7449 10.2223 15.8327 10.0013 15.8327C9.78029 15.8327 9.56833 15.7449 9.41205 15.5886C9.25577 15.4323 9.16797 15.2204 9.16797 14.9993C9.16797 14.7783 9.25577 14.5664 9.41205 14.4101C9.56833 14.2538 9.78029 14.166 10.0013 14.166V14.166Z" fill="white"/>
</svg>
