<?xml version="1.0" encoding="utf-8"?>
<!-- Generator: Adobe Illustrator 26.2.1, SVG Export Plug-In . SVG Version: 6.00 Build 0)  -->
<svg version="1.1" id="레이어_1" xmlns="http://www.w3.org/2000/svg" xmlns:xlink="http://www.w3.org/1999/xlink" x="0px"
	 y="0px" viewBox="0 0 42 42" style="enable-background:new 0 0 42 42;" xml:space="preserve">
<style type="text/css">
	.st0{fill:none;}
	.st1{fill:#FFFFFF;}
</style>
<rect class="st0" width="42" height="42"/>
<path class="st1" d="M11.3,33.2l-7.8,6.1V7c0-0.5,0.2-0.9,0.5-1.2c0.3-0.3,0.8-0.5,1.2-0.5h31.5c0.5,0,0.9,0.2,1.2,0.5
	c0.3,0.3,0.5,0.8,0.5,1.2v24.5c0,0.5-0.2,0.9-0.5,1.2s-0.8,0.5-1.2,0.5H11.3z M19.2,24.5V28h3.5v-3.5H19.2z M15,15.4l3.4,0.7
	c0.1-0.5,0.3-0.9,0.7-1.3c0.3-0.4,0.8-0.6,1.3-0.7c0.5-0.1,1-0.1,1.5,0.1c0.5,0.2,0.9,0.4,1.2,0.8c0.3,0.4,0.5,0.9,0.6,1.3
	c0.1,0.5,0,1-0.2,1.4c-0.2,0.4-0.5,0.8-1,1.1c-0.4,0.3-0.9,0.4-1.4,0.4h-1.8v3.5H21c1.2,0,2.3-0.3,3.3-1c1-0.6,1.8-1.5,2.3-2.6
	c0.5-1,0.7-2.2,0.5-3.4c-0.1-1.2-0.6-2.2-1.3-3.1c-0.7-0.9-1.7-1.6-2.8-1.9c-1.1-0.4-2.3-0.4-3.4-0.1c-1.1,0.3-2.1,0.9-2.9,1.7
	C15.8,13.2,15.2,14.3,15,15.4L15,15.4z"/>
</svg>
