<?xml version="1.0" encoding="utf-8"?>
<!-- Generator: Adobe Illustrator 26.2.1, SVG Export Plug-In . SVG Version: 6.00 Build 0)  -->
<svg version="1.1" id="레이어_1" xmlns="http://www.w3.org/2000/svg" xmlns:xlink="http://www.w3.org/1999/xlink" x="0px"
	 y="0px" viewBox="0 0 36.6 37.2" style="enable-background:new 0 0 36.6 37.2;" xml:space="preserve">
<style type="text/css">
	.st0{fill:#FFFFFF;}
</style>
<path class="st0" d="M5.7,8.1L0,2.5L2.5,0l5.7,5.7h26.7c0.3,0,0.5,0.1,0.8,0.2c0.2,0.1,0.5,0.3,0.6,0.5c0.2,0.2,0.3,0.5,0.3,0.7
	c0,0.3,0,0.5,0,0.8l-4.2,14c-0.1,0.4-0.3,0.7-0.6,0.9c-0.3,0.2-0.7,0.3-1,0.3H9.2v3.5h19.2v3.5h-21c-0.5,0-0.9-0.2-1.2-0.5
	s-0.5-0.8-0.5-1.2V8.1z M8.3,37.2c-0.7,0-1.4-0.3-1.9-0.8c-0.5-0.5-0.8-1.2-0.8-1.9s0.3-1.4,0.8-1.9c0.5-0.5,1.2-0.8,1.9-0.8
	c0.7,0,1.4,0.3,1.9,0.8c0.5,0.5,0.8,1.2,0.8,1.9s-0.3,1.4-0.8,1.9C9.7,36.9,9,37.2,8.3,37.2z M29.3,37.2c-0.7,0-1.4-0.3-1.9-0.8
	c-0.5-0.5-0.8-1.2-0.8-1.9s0.3-1.4,0.8-1.9c0.5-0.5,1.2-0.8,1.9-0.8s1.4,0.3,1.9,0.8c0.5,0.5,0.8,1.2,0.8,1.9s-0.3,1.4-0.8,1.9
	C30.7,36.9,30,37.2,29.3,37.2z"/>
</svg>
