<?xml version="1.0" encoding="utf-8"?>
<!-- Generator: Adobe Illustrator 26.2.1, SVG Export Plug-In . SVG Version: 6.00 Build 0)  -->
<svg version="1.1" id="레이어_1" xmlns="http://www.w3.org/2000/svg" xmlns:xlink="http://www.w3.org/1999/xlink" x="0px"
	 y="0px" viewBox="0 0 42 42" style="enable-background:new 0 0 42 42;" xml:space="preserve">
<style type="text/css">
	.st0{fill:none;}
	.st1{fill:url(#SVGID_1_);}
</style>
<rect class="st0" width="42" height="42"/>
<linearGradient id="SVGID_1_" gradientUnits="userSpaceOnUse" x1="42.8037" y1="12.6087" x2="-9.7375" y2="30.7221" gradientTransform="matrix(1 0 0 -1 0 44)">
	<stop  offset="0" style="stop-color:#2867CC"/>
	<stop  offset="1" style="stop-color:#00CCF9"/>
</linearGradient>
<path class="st1" d="M7,11.2L1.3,5.6l2.5-2.5l5.7,5.7h26.7c0.3,0,0.5,0.1,0.8,0.2c0.2,0.1,0.5,0.3,0.6,0.5c0.2,0.2,0.3,0.5,0.3,0.7
	c0,0.3,0,0.5,0,0.8l-4.2,14c-0.1,0.4-0.3,0.7-0.6,0.9c-0.3,0.2-0.7,0.3-1,0.3H10.5v3.5h19.2v3.5h-21c-0.5,0-0.9-0.2-1.2-0.5
	C7.2,32.4,7,32,7,31.5V11.2z M9.6,40.2c-0.7,0-1.4-0.3-1.9-0.8C7.3,39,7,38.3,7,37.6s0.3-1.4,0.8-1.9C8.3,35.3,8.9,35,9.6,35
	c0.7,0,1.4,0.3,1.9,0.8c0.5,0.5,0.8,1.2,0.8,1.9S12,39,11.5,39.5C11,40,10.3,40.2,9.6,40.2z M30.6,40.2c-0.7,0-1.4-0.3-1.9-0.8
	C28.3,39,28,38.3,28,37.6s0.3-1.4,0.8-1.9c0.5-0.5,1.2-0.8,1.9-0.8s1.4,0.3,1.9,0.8c0.5,0.5,0.8,1.2,0.8,1.9S33,39,32.5,39.5
	C32,40,31.3,40.2,30.6,40.2z"/>
</svg>
